PathFileType	4	(X/Y/Z)	s02c0301.trc
DataRate	CameraRate	NumFrames	NumMarkers	Units	OrigDataRate	OrigDataStartFrame	OrigNumFrames
200	200	4	51	mm	200	1000	2000
Frame#	Time	racr			lacr			c7			jug			rlel			rdr			llel			ldr			s2			lic			ric			lasi			rasi			rpsi			lpsi			rgt			lgt			rth1			rth2			rth3			rth4			rlfc			rmfc			rsh1			rsh2			rsh3			rsh4			rlmal			rmmal			rcal			rtoe			rmt5			rmt1			lth1			lth2			lth4			lth3			llfc			lmfc			lsh1			lsh2			lsh3			lsh4			llmal			lmmal			lcal			ltoe			lmt5			SBIKE			LBIKE			RBIKE			
		X1	Y1	Z1	X2	Y2	Z2	X3	Y3	Z3	X4	Y4	Z4	X5	Y5	Z5	X6	Y6	Z6	X7	Y7	Z7	X8	Y8	Z8	X9	Y9	Z9	X10	Y10	Z10	X11	Y11	Z11	X12	Y12	Z12	X13	Y13	Z13	X14	Y14	Z14	X15	Y15	Z15	X16	Y16	Z16	X17	Y17	Z17	X18	Y18	Z18	X19	Y19	Z19	X20	Y20	Z20	X21	Y21	Z21	X22	Y22	Z22	X23	Y23	Z23	X24	Y24	Z24	X25	Y25	Z25	X26	Y26	Z26	X27	Y27	Z27	X28	Y28	Z28	X29	Y29	Z29	X30	Y30	Z30	X31	Y31	Z31	X32	Y32	Z32	X33	Y33	Z33	X34	Y34	Z34	X35	Y35	Z35	X36	Y36	Z36	X37	Y37	Z37	X38	Y38	Z38	X39	Y39	Z39	X40	Y40	Z40	X41	Y41	Z41	X42	Y42	Z42	X43	Y43	Z43	X44	Y44	Z44	X45	Y45	Z45	X46	Y46	Z46	X47	Y47	Z47	X48	Y48	Z48	X49	Y49	Z49	X50	Y50	Z50	X51	Y51	Z51	
1000	5.0000	755.649508	1241.040579	-174.385174	698.026830	1240.854120	-518.027257	732.866651	1281.453067	-352.641988	669.476325	1172.796274	-330.058197	662.649565	1018.302522	-41.872822	736.088524	842.113576	-123.126556	534.648949	1001.023831	-570.415951	706.255389	861.826244	-523.478073	206.338264	1176.988593	-238.856754	304.387367	1176.917820	-406.484415	357.836366	1162.803693	-125.471229	350.253044	1138.555737	-388.334330	395.645782	1120.379921	-155.816758	249.839004	1232.722626	-191.573596	241.239313	1244.835066	-279.247506	323.665605	1064.760092	-88.069455	249.492126	1099.589493	-433.451314	385.066349	985.103075	-105.363683	440.626717	916.531374	-115.112969	460.748400	833.685365	-102.531357	466.762738	929.023018	-139.809700	475.236564	695.794728	-138.462466	451.053859	686.811907	-245.664552	405.831652	603.344278	-122.008038	356.051715	530.717199	-138.088550	280.260690	489.419516	-129.688570	363.436631	525.635858	-176.540985	177.908965	411.818749	-131.726167	198.948092	425.761061	-213.786494	101.512732	447.058538	-176.783002	228.748741	188.680973	-197.653657	166.604771	273.206869	-131.430867	188.060031	262.950631	-238.880917	361.546657	1017.319648	-471.885918	436.441671	974.835373	-483.260024	462.095507	998.249123	-470.143561	479.379242	898.261411	-496.445343	550.496149	818.789767	-489.096787	571.965838	786.144082	-387.065350	516.432239	717.293250	-505.746728	498.035927	634.471263	-486.866684	437.243580	568.097400	-482.529310	520.693187	628.718852	-453.339887	371.622975	486.042896	-463.413381	395.288299	478.269244	-388.267479	298.585188	449.507703	-421.322065	571.832735	362.182599	-454.278634	458.341220	371.693111	-505.994789	-128.552427	870.483980	-315.352591	32.936108	81.939035	-515.288735	33.002462	82.203713	-115.142707	
1001	5.0050	754.196254	1242.345528	-172.727968	699.069713	1237.833727	-516.720510	732.653722	1281.179691	-351.202230	668.787565	1171.990402	-328.551719	661.632001	1018.074178	-42.110579	735.892950	842.052631	-122.858927	533.635991	999.637658	-569.964307	706.048866	861.798552	-523.420395	205.635065	1174.850305	-239.077359	304.593857	1173.405419	-407.104636	356.607641	1162.611382	-125.769086	350.385247	1135.176113	-388.277028	394.811995	1119.961962	-155.718241	253.354225	1226.466476	-197.866221	240.134354	1242.417774	-280.644908	325.749099	1064.074112	-88.563935	248.166575	1095.671709	-433.096491	386.586015	985.609296	-105.677167	443.094051	918.029933	-116.828085	464.713767	835.686662	-103.183384	468.721349	930.903612	-141.224000	481.474268	697.211274	-139.730522	455.273462	688.994849	-246.656884	410.604813	606.093677	-123.474509	358.534084	535.030609	-139.591555	282.058310	495.445466	-131.092245	365.638260	530.062824	-177.887338	177.545353	421.862477	-132.043048	198.898954	435.570398	-214.195614	101.976028	458.075183	-176.951984	225.630183	198.299200	-197.609941	164.515703	283.623748	-131.575875	185.796789	273.015981	-239.039535	359.068877	1012.306908	-472.141465	432.846740	969.343107	-485.424966	459.542922	992.244470	-471.529325	475.349833	891.907937	-497.205616	545.475929	811.685931	-489.891363	568.975178	778.847705	-388.601379	512.255489	709.960216	-506.653881	495.930325	626.579585	-488.023028	436.642746	558.910729	-482.907790	519.521879	620.899972	-455.207585	373.559342	475.248943	-463.612387	397.452667	467.689568	-388.388651	301.168015	438.859798	-421.052665	574.336975	351.084343	-454.371314	460.729037	360.851232	-505.903310	-128.524518	870.525402	-315.208812	32.926193	81.979107	-515.274532	33.016405	82.215367	-115.114358	
1002	5.0100	752.763686	1243.860498	-170.493550	700.226467	1235.020871	-515.314441	732.459375	1280.982192	-349.601271	668.078516	1171.185593	-326.882491	660.669374	1017.787727	-42.202416	735.716601	841.873650	-122.542028	532.883548	998.192392	-569.917192	705.896226	861.789590	-523.412342	204.870487	1172.516099	-239.492051	304.978124	1169.680650	-407.790551	355.267099	1162.090343	-126.219186	350.693866	1131.735006	-388.368098	392.999920	1119.118312	-156.638845	251.572156	1225.361388	-198.907852	239.159069	1239.850371	-282.302505	325.794439	1063.199309	-88.360682	247.104627	1091.674138	-432.819661	387.748482	985.952082	-105.933080	445.110200	919.371409	-117.560231	468.470215	837.440573	-103.774045	470.051490	932.752098	-142.430079	487.665855	698.551102	-141.039859	459.873401	690.966378	-247.654754	415.053929	609.045096	-124.767799	360.132383	539.217163	-141.549373	283.489611	501.962677	-132.226117	367.616486	534.233738	-179.436515	177.236025	432.168442	-132.318182	198.527479	445.780040	-214.200610	102.379700	469.097572	-177.123648	223.455889	208.441079	-197.660038	163.112044	294.125983	-131.581996	184.220997	283.343868	-239.244003	356.945368	1007.331433	-472.594794	430.019639	963.326649	-486.173718	457.130018	985.966726	-472.771156	471.424202	885.235425	-497.688564	540.711129	804.598056	-490.459896	565.999457	771.744261	-389.719860	508.323950	702.788682	-507.296595	493.974645	618.976729	-489.283187	435.916946	550.295444	-483.511692	518.353895	613.350261	-457.060767	375.334600	464.468977	-464.043355	399.220933	457.182027	-388.667181	303.287466	428.411163	-421.215761	576.330483	339.527953	-454.196644	462.739472	349.847498	-505.800264	-128.435078	870.561586	-314.994389	32.947955	82.025739	-515.236191	33.041171	82.205417	-115.115398	
1003	5.0150	751.149058	1244.974995	-168.296292	701.566960	1232.327767	-513.741298	732.321581	1280.901338	-347.742264	667.352055	1170.384904	-325.049711	659.565404	1017.461236	-42.016289	735.527577	841.587698	-122.173682	532.237112	997.293125	-570.317735	705.787791	861.815311	-523.465018	204.562587	1170.074295	-240.135490	305.872678	1165.528802	-410.307363	353.807387	1161.239108	-126.821650	351.100616	1128.236682	-388.650040	391.929098	1118.575771	-156.757094	249.793205	1223.796174	-200.274248	239.506231	1236.442439	-284.817095	326.005969	1062.494895	-88.173725	246.388888	1087.637386	-432.709413	388.785735	985.680980	-105.986911	446.779984	920.359446	-118.436558	472.063926	839.023731	-104.334193	471.064739	933.572453	-144.289101	493.729582	700.056331	-142.349699	464.951818	692.719550	-248.482550	419.362703	612.344657	-125.873548	361.925503	544.573215	-142.755646	284.519961	509.461358	-132.821487	363.506738	536.758156	-183.949952	177.258247	442.640924	-132.647574	198.868551	455.875349	-214.422899	102.860451	480.106747	-177.305721	222.051340	218.616873	-197.675952	162.122736	304.977438	-131.674260	183.315107	293.751342	-239.365369	355.027571	1002.170381	-472.961120	427.517891	956.773669	-486.389441	454.874524	979.372163	-473.851370	467.644089	878.181708	-497.904847	536.174821	797.431170	-490.844259	564.041912	765.198710	-390.375770	504.571132	695.668513	-508.324886	491.981623	611.518092	-490.419027	435.142102	541.781447	-483.826995	517.089537	605.827455	-458.741505	376.730378	453.640512	-464.666354	400.522234	446.730933	-389.068701	304.477082	418.519949	-421.738372	577.845758	327.973483	-454.293659	464.245821	338.729890	-505.771630	-128.357990	870.589839	-314.828131	32.986540	82.049337	-515.224837	33.057320	82.224538	-115.095161	
